<svg width="18" height="19" viewBox="0 0 18 19" fill="none" xmlns="http://www.w3.org/2000/svg">
<path d="M9 0.290329C4.0293 0.290329 0 4.31963 0 9.29033C0 14.261 4.0293 18.2903 9 18.2903C13.9707 18.2903 18 14.261 18 9.29033C18 4.31963 13.9707 0.290329 9 0.290329ZM9 2.09033C12.9762 2.09033 16.2 5.31413 16.2 9.29033C16.2 12.8313 13.6406 15.7687 10.2727 16.3708V12.022H12.4014L12.7178 9.56982H10.2867V8.00713C10.2867 7.29793 10.4844 6.81884 11.5014 6.81884H12.7863V4.63037C12.1608 4.56647 11.5328 4.5354 10.9037 4.5372C9.03711 4.5372 7.75898 5.67646 7.75898 7.76806V9.57334H5.64961V12.0255H7.75898V16.3761C4.37552 15.7867 1.8 12.8423 1.8 9.29033C1.8 5.31413 5.0238 2.09033 9 2.09033Z" fill="#999999"/>
</svg>
