<svg width="18" height="19" viewBox="0 0 18 19" fill="none" xmlns="http://www.w3.org/2000/svg">
<path d="M9.01143 0.231079C4.05554 0.231079 0.021138 4.26639 0.0193378 9.22766C0.0184377 10.8135 0.433364 12.3617 1.22004 13.726L0 18.2524L4.70964 17.1384C6.02287 17.8556 7.5012 18.2321 9.00615 18.233H9.00967C13.9647 18.233 17.9973 14.1968 18 9.23646C18.0018 6.83152 17.0676 4.57038 15.3701 2.86916C13.6725 1.16885 11.4165 0.23198 9.01143 0.231079ZM9.00967 2.03321C10.9323 2.03411 12.739 2.78452 14.0973 4.14333C15.4555 5.50394 16.2016 7.31183 16.1998 9.2347C16.198 13.203 12.9737 16.4309 9.00791 16.4309C7.80809 16.43 6.61961 16.1284 5.57281 15.5562L4.9663 15.2254L4.29651 15.3838L2.52446 15.8026L2.95693 14.1941L3.15207 13.4725L2.77937 12.8249C2.15111 11.7364 1.81861 10.4919 1.81951 9.22766C1.82131 5.26117 5.04658 2.03321 9.00967 2.03321ZM5.82947 5.07431C5.67916 5.07431 5.43612 5.13063 5.23 5.35589C5.02388 5.58026 4.44243 6.12367 4.44243 7.23018C4.44243 8.33669 5.24758 9.40629 5.36009 9.55677C5.4717 9.70634 6.91425 12.0488 9.19777 12.9498C11.0952 13.6986 11.4805 13.5509 11.8928 13.513C12.305 13.4761 13.2227 12.9701 13.4099 12.4448C13.5971 11.9194 13.5976 11.4675 13.5417 11.3747C13.4859 11.281 13.3361 11.2251 13.111 11.1125C12.8869 10.9999 11.7824 10.4569 11.5763 10.3822C11.3702 10.3074 11.2194 10.2695 11.07 10.4948C10.9206 10.7201 10.4912 11.2252 10.3598 11.3747C10.2284 11.5252 10.0979 11.5454 9.87284 11.4328C9.64781 11.3193 8.92431 11.0812 8.06563 10.3153C7.39776 9.71968 6.94712 8.9848 6.8157 8.75953C6.68519 8.53517 6.8034 8.41193 6.91591 8.3002C7.01672 8.19928 7.13917 8.03754 7.25168 7.90598C7.36329 7.77443 7.402 7.6807 7.47671 7.53112C7.55141 7.38155 7.51317 7.24954 7.45737 7.13691C7.40156 7.02428 6.96454 5.91365 6.76472 5.46853C6.59641 5.09459 6.41864 5.0859 6.25842 5.07959C6.12791 5.07418 5.97889 5.07431 5.82947 5.07431Z" fill="#999999"/>
</svg>
